<?xml version="1.0" encoding="utf-8"?>
<!-- Generator: Adobe Illustrator 16.0.0, SVG Export Plug-In . SVG Version: 6.00 Build 0)  -->
<!DOCTYPE svg PUBLIC "-//W3C//DTD SVG 1.1//EN" "http://www.w3.org/Graphics/SVG/1.1/DTD/svg11.dtd">
<svg version="1.1" id="图层_1" xmlns="http://www.w3.org/2000/svg" xmlns:xlink="http://www.w3.org/1999/xlink" x="0px" y="0px"
	 width="217px" height="113px" viewBox="0 0 217 113" enable-background="new 0 0 217 113" xml:space="preserve">
<linearGradient id="SVGID_1_" gradientUnits="userSpaceOnUse" x1="-15.207" y1="116.0747" x2="-14.208" y2="116.0747" gradientTransform="matrix(217.1533 0 0 -140.8081 3302.3723 16400.7305)">
	<stop  offset="0" style="stop-color:#003200;stop-opacity:0.54"/>
	<stop  offset="0.9" style="stop-color:#001800;stop-opacity:0.54"/>
</linearGradient>
<path fill="url(#SVGID_1_)" d="M0.613,0.006h0.399c0,0,205.296,0,205.696,0c0-0.385,9.992,16.564,9.992,16.564
	c0.32,0.641,0.32,1.667,0,2.312l-9.992,19.004l9.992,17.077c0.32,0.642,0.32,1.734,0,2.375l-9.992,19.069l9.992,16.947
	c0.4-0.322,0.4,1.732,0,2.376L206.708,113H0.213c-0.479,0,0-0.255,0-0.642V0.649V0.328L0.613,0.006L0.613,0.006L0.613,0.006
	L0.613,0.006L0.613,0.006L0.613,0.006L0.613,0.006"/>
</svg>
