<?xml version="1.0" encoding="utf-8"?>
<!-- Generator: Adobe Illustrator 16.0.0, SVG Export Plug-In . SVG Version: 6.00 Build 0)  -->
<!DOCTYPE svg PUBLIC "-//W3C//DTD SVG 1.1//EN" "http://www.w3.org/Graphics/SVG/1.1/DTD/svg11.dtd">
<svg version="1.1" id="图层_1" xmlns="http://www.w3.org/2000/svg" xmlns:xlink="http://www.w3.org/1999/xlink" x="0px" y="0px"
	 width="250px" height="113px" viewBox="0 0 250 113" enable-background="new 0 0 250 113" xml:space="preserve">
<linearGradient id="SVGID_1_" gradientUnits="userSpaceOnUse" x1="-134.4526" y1="-360.7925" x2="-133.3677" y2="-360.7925" gradientTransform="matrix(230.3761 0 0 122.2292 30974.4863 44155.8086)">
	<stop  offset="0.48" style="stop-color:#002000;stop-opacity:0.54"/>
	<stop  offset="1" style="stop-color:#231200;stop-opacity:0.54"/>
</linearGradient>
<path fill="url(#SVGID_1_)" d="M0.392,0.006h0.376c0,0,239.142,0,239.519,0c0-0.385,9.429,16.564,9.429,16.564
	c0.303,0.642,0.303,1.669,0,2.31l-9.429,19.006l9.429,17.076c0.303,0.643,0.303,1.734,0,2.374l-9.429,19.07l9.429,16.947
	c0.377-0.32,0.377,1.732,0,2.377L240.285,113H0.014c-0.014-0.125,0-0.258,0-0.643V0.648V0.327L0.392,0.006L0.392,0.006L0.392,0.006
	L0.392,0.006L0.392,0.006L0.392,0.006L0.392,0.006"/>
</svg>
