<svg xmlns="http://www.w3.org/2000/svg" width="39" height="43" viewBox="0 0 39 43"><g stroke="#fff" fill="none"><path d="M1.306-1.331s10.859 4.893 17.233 7.871c6.372 2.979 9.675 4.948 13.594 6.928 3.32 1.677 6.878 2.359 6.798 6.865-.078 4.41-1.08 5.173-3.594 7.515-4.038 3.764-7.341 5.492-10.449 7.258-3.363 1.909-6.982 6.872-6.982 6.872"/><path d="M21.145 8.028s-4.272-1.886-8.946-3.161c-5.2-1.419-10.927-4.196-10.927-4.196"/><path d="M7.516 1.485s1.089 2.117.563 2.292c-.526.176-2.605-1.416-3.305-2.342-.701-.925-.447-1.712-.447-1.712"/><path d="M3.252 1.705l.948 3.018"/><path d="M1.217 3.669l9.928 4.179"/><path d="M8.216 3.836c.008-.468 1.469 3.169 3.703 4.731 2.234 1.563 6.562 4.182 6.562 4.182l3.289 4.737 6.283 1.594 4.423-2.704s6.748-.186 6.466 2.899c-.283 3.085-5.66 6.092-7.399 7.297-4.936 3.419-6.799 8.529-6.799 8.529"/><path d="M32.748 30.418l-.312-3.93-5.203-1.347-6.424 2.801-3.157 5.442s-2.91.948-5.746 3.428c-2.838 2.48-5.368 4.964-5.368 4.964"/><path d="M33.001 16.243s-5-1.766-6.632-2.603c-1.635-.837-3.42-1.474-3.42-1.474s-3.068-1.143-4.269-2.374c-1.2-1.231-3.5-3.871-3.5-3.871"/><path d="M16.163 6.938l4.223 9.079 3.423-3.834s-4.088-4.684-3.27-4.67c.816.015 12.463 8.73 12.463 8.73"/><path d="M11.199 4.848l2.91 5.054"/><path d="M27.8 19.15s.202.625.079 2.702c-.122 2.078-1.057 4.282-1.057 4.282"/><path d="M26.239 31.585l-5.177 2.733s-.154 1.383-2.436 2.673l-4.845 3.914-1.227-.022 3.107-4.143c.656-.567 3.74-2.525 3.74-2.525l3.166-4.735 6.215-1.067s-1.687-3.303-1.49-3.27"/><path d="M19.643 36.062l-2 .012"/><path d="M26.733 31.135l-5-.089"/><path d="M27.895 22.153s-1.874.331-4.985.715c-3.112.384-5.401-.096-5.401-.096l-3.379-5.096s-1.781-1.003-1.918-1.065c-.139-.061-2.205-.274-2.205-.274l-4.737-5.329-4.101-4.617.648-.711 7.825 4.774s2.08 1.165 3.117 2.297c1.037 1.132 1.718 2.14 1.718 2.14l4.493.842 3.39 2.125-4.484 2.368-3.227-.721-5.202 1.977-1.126-2.379-3.123-.07-4.166-4.866 3.672-3.803"/><path d="M10.002 15.831l-2.054 2.965"/><path d="M1.038 13.669l2.334 7.19 2.922 5.907 3.296.06 1.825-2.367 3.176.408 2.976-2.579.367-2.554"/><path d="M6.787 27.777l1.905-5.968 2.139 3.603"/><path d="M4.948 18.74l-1.732 2.299-2.321.629"/><path d="M-.275 31.129l2.411-.262 1.638 5.858 1.981.035 3.93-3.245s3.412-.682 4.639-2.125l5.451-2.703.084-4.677-8.961 5.777-7.195 6.695 3.171-9.181"/><path d="M6.806 26.777l-5.09 4.911"/><path d="M.572 39.669l4.072-3.928"/><path d="M-.41 38.65l3.982 1.073"/><path d="M1.536 41.687l5.43-5.905 5.674.366"/><path d="M11.625 36.866l3.111-6.159 1.073-4.123-1.669-1.678"/><path d="M9.554 40.83l3.913-3.938 1.195-1.973"/><path d="M13.624 36.957l3 .098"/><path d="M16.679 33.989l3.984 1.003"/><path d="M19.787 28.01l2.965 2.053"/><path d="M11.84 24.866l.876 7.018"/><path d="M10.841 24.849l-4.107 5.928 2.947 3.054"/><path d="M16.876 22.956l-.054 3"/><path d="M13.967 17.902l.637-2.99"/><path d="M11.985 16.866l-1.892-6.036-5.736-1.103-4.253.26"/><path d="M4.11 9.723l1.038-2.073 4.016-.837"/><path d="M21.679 34.044l-1.784 4.971-4.306-.078 5.071-3.902"/><path d="M34.858 24.278c1.711.484.666 2.012.648 3.013"/><path d="M13.626 36.902l3.982 1.072"/></g></svg>