<svg xmlns:sketch="http://www.bohemiancoding.com/sketch/ns" xmlns="http://www.w3.org/2000/svg" viewBox="0 0 289 205"><title>Page-1</title><desc>Created with Sketch.</desc><g sketch:type="MSShapeGroup"><path fill="#222" fill-opacity=".08" d="M287 132l-71 72-195-77 73-31 193 36z"/><g stroke="#fff" stroke-width="2" fill="none"><path d="M23 112l2.024 2.227 7.976 8.773M23 31l1.41-1.41 2.59-2.59M23 50l2.118-2.118 10.882-10.882M23 69l2.07-2.164 19.93-20.836M19 91l2.059-2.176 32.941-34.824M18.126 109.874l44.874-44.874M23 121l2.148-2.105 47.852-46.895M33 122l2.33-1.902 46.67-38.098M69 106l2.243-1.994 15.757-14.006M23 126l2.749-1.207s38.251-16.793 45.251-19.793l24-9M22 95l2.119 2.119 19.881 19.881M20 74l2.095 2.152 34.905 35.848M19.972 56.351l47.028 50.649M22 40l2.152 2.083 59.848 57.917M19.972 19.71l74.028 76.29"/></g><g stroke="#fff" stroke-width="2" fill="none"><path d="M242 35l-21 20M212 145l32 33M213 128l40 40M213 110l49 49M213 91l57 58M216 72l64 65M214 50l64 65M217 38l44 45M220 27l8.669 8.886c10.444 10.705 23.331 26.114 23.331 26.114M239 26s12.945 36.647 22 56c7.945 16.981 27 52 27 52M247 47l-26 26M251 61l-30 30M256 73l-35 36M260 86l-40 42M268 97l-48 49M217 166l57-56M218 185l63-64M218 204l70-72M217 185l9 11M215 165l20 22"/></g><g stroke="#fff" stroke-width="2" fill="none"><path d="M94 96l121 24M92 17l-38 37M109 19l-45 45M126 20l-54 53M142 23l-60 59M158 24l-70 66M173 27l-71 71M190 28l-73 72M209 27l-76 76M224 30l-77 76M218 56l-58 54M221 71s-30.279 28.598-43 41M219 93l-26 23M219 108l-11 10M125 16l2.106 2.128 92.894 93.872M144 17l2.038 2.206 70.962 76.794M170 25l2.072 2.181 45.428 47.819M187 26l2.191 2.051 28.809 26.949M27 27l17-15M36 37l24-23M78 14l-33 32M25 7l2.117 2.117 90.883 90.883M48 9l2.044 2.208 84.956 91.792M69 14l2.106 2.128 92.894 93.872M87 14l2.123 2.123 97.877 97.877M106 16l2.107 2.128 99.893 100.872"/></g><path fill="#fff" d="M17 3h7v124h-7v-124zM214 29h9l-5 176-8-3 4-173zM21 3l200.018 20.794c1.094.114 1.982 1.102 1.982 2.204v7.003l-202-23v-7.001zM221 24h15.493c1.937 0 3.885 1.512 4.354 3.392l.153.608-23 3 3-7z"/></g></svg>