<svg width="106" height="249" viewBox="0 0 106 249" xmlns="http://www.w3.org/2000/svg"><title>Slice 1</title><defs><linearGradient x1="83.084%" y1="25.765%" x2="113.188%" y2="38.749%" id="a"><stop stop-color="#DAA58F" offset="0%"/><stop stop-color="#87594C" offset="100%"/></linearGradient><linearGradient x1="83.084%" y1="26.144%" x2="113.188%" y2="38.925%" id="b"><stop stop-color="#DAA58F" offset="0%"/><stop stop-color="#87594C" offset="100%"/></linearGradient></defs><g fill="none" fill-rule="evenodd"><path d="M57.24 102.543s-.54 19.035 0 20.962c.447 1.607.984 5.302.984 5.302s-.965 6.216 2.842 6.608c1.848.19 9.075 1.215 10.955 0 2.26-1.46 4.98-5.41 4.98-5.708 0-1.06-2.137-15.207-2.137-15.207C76.555 114.5 62.05 93 62.05 93l-4.81 9.543z" fill="#CC947B"/><path d="M5.826 11.243s-2.718 4.183-3.3 5.1c-.85 1.344-1.313 6.068-1.313 6.068l1.313 4.423 2.148 3.39 2.148 1.13h3.222c1.074 0 4.297-2.26 4.297-2.26l3.223-3.39s6.605-12.67 6.963-17.19L16.47.864 5.826 11.243z" fill="url(#a)" transform="translate(13 107) rotate(2 12.869 16.11)"/><path d="M24.908 135.345s.97-2.512 1.205-3.874c.256-1.49.266-4.69.266-4.69l-1.993-2.55-1.767-.716-2.483.304c-.827.1-3.085 2.24-3.085 2.24l.072 7.445 7.784 1.842z" fill="#F3D5C9"/><path d="M26.288 102.946c-.23.186-2.148 5.705-2.148 5.705s-.492 2.4-1.074 3.29c-.85 1.302-1.074 4.386-1.074 4.386v6.58l2.148 3.288 2.148 1.096h3.222c1.074 0 4.297-2.193 4.297-2.193l3.222-3.29s6.604-12.286 6.962-16.672L37.03 98.29s-6.676 1.388-10.742 4.656z" id="Path-105" fill="url(#b)" transform="rotate(25 32.992 112.79)"/><g fill="#DAA58F"><path d="M8 105v-1.076s.145-2.07 1-2.924l3-3.058s3.722-1.843 4-1.982c1.055-.526 5-3.003 5-3.003l13-4.984s6.898 5.222 9 4c1.898-1.104 7-1.994 7-1.994l9 .996L64 83l11 14.954L88 115.9s1.786 3.752 2 6.1c.12 1.308 0 5.863 0 5.863s-.82 5.9-1 6.978c-.153.918-5 17.946-5 17.946L79 168l-6 16-1 6.67-7 3.988-17 5.98s-9 .998-14 4.986c-2.406 1.92.61-1.536-1-6.624-.702-2.22 1 3.658 0-11-.22-3.212-.783-5.7-2-13s-3-12.015-3-17c0-.73-1-11.018 1-17 2-5.982 4-13.137 4-13.137l5-6.98s17.254 7.37 20 10.117c2 2 8 3 8 3l7-1s2.845-5.613 3-7c.18-1.604-1-10.1-1-10.1L62 95.96l-6 7.976s-2.87 2.902-6 3.988C45.464 109.497 34 102 34 102l-11 5.91s-4 1.995-5 1.995h-4l-3-.997-2-.997-1-.996V105z" id="path-6"/></g><path d="M8 105v-1.076s.145-2.07 1-2.924l3-3.058s3.722-1.843 4-1.982c1.055-.526 5-3.003 5-3.003l13-4.984s6.898 5.222 9 4c1.898-1.104 7-1.994 7-1.994l9 .996L64 83l11 14.954L88 115.9s1.786 3.752 2 6.1c.12 1.308 0 5.863 0 5.863s-.82 5.9-1 6.978c-.153.918-5 17.946-5 17.946L79 168l-6 16-1 6.67-7 3.988-17 5.98s-9 .998-14 4.986c-2.406 1.92.61-1.536-1-6.624-.702-2.22 1 3.658 0-11-.22-3.212-.783-5.7-2-13s-3-12.015-3-17c0-.73-1-11.018 1-17 2-5.982 4-13.137 4-13.137l5-6.98s17.254 7.37 20 10.117c2 2 8 3 8 3l7-1s2.845-5.613 3-7c.18-1.604-1-10.1-1-10.1L62 95.96l-6 7.976s-2.87 2.902-6 3.988C45.464 109.497 34 102 34 102l-11 5.91s-4 1.995-5 1.995h-4l-3-.997-2-.997-1-.996V105z"/><path d="M30.636 120.878c4.727-1.268 0 0 0 0s.663-2.43.733-3.705c.076-1.396-.293-4.307-.293-4.307s-5.817-1.072-6.623-.856c-.805.216-1.685 2.326-1.685 2.326s-.663 2.086-.844 3.028c-.175.908.805 3.002.805 3.002s3.18 1.78 7.906.512z" fill="#EFCDBE"/><rect fill="#F4E845" transform="rotate(19 45 52.184)" x="13.5" y="8.184" width="63" height="88" rx="8"/><path d="M59 102.815l3 10.592-3.555 5.135-.445.643V124l6-.963-4-.963v-2.89c0-.642 4-4.814 4-4.814h4c2.152 0 8 .963 8 .963s-12-2.89-12-3.852c0-.96-3-7.702-3-7.702L69 98l-10 4.815z" fill-opacity=".53" fill="#3F140F"/><path d="M57 196c-8.31 3.672-24 8-24 8l14 45h59s-31-61-32-61-10.976 5.338-17 8z" fill="#222"/><path d="M34 208s-5-20-8-29c-5.518-16.553 1.096-38.205 2-42 .763-3.205 4-9 4-9s8.88-15.577 9-17.344c.214-3.184 0-10.892 0-10.892s-.01-9.82 0-9.902c.28-2.073 1-5.94 1-5.94s.448-2.504 1-3.96c.448-1.185 3-2.972 3-2.972s2-.99 4-.99h4l2 .99c2 .99 2 1.98 2 1.98l1 3.96V92.833l-1 8.912-1 8.912v3.96L74 186l-40 22z" fill="#DAA58F"/><path d="M43 103.407l5 .797 7-.797H43zM43 101.407l5 .797 7-.797H43z" fill-opacity=".53" fill="#3F140F"/><path d="M46.906 89.46c.99.586 3.838.96 3.838.96s3.176.394 3.838 0c.94-.558.972-2.855.972-2.855s.38-3.47 0-5.75c-.188-1.114-1.116-1.85-1.28-1.933H51.08s-1.76-.055-1.915 0c-.234.082-1.357.045-1.915.64-.605.644-.638 1.92-.638 1.92l-.635 5.154s.33 1.508.93 1.863z" fill="#F3D5C9"/><path d="M68 187c-6.68 3.05-23.736 9.4-25 10-2.535 1.204-11 5-11 5s.48 4.44 1 6c.48 1.44 2 5 2 5l43-18s-1.022-2.97-2-5c-.948-1.97-.85-7-1-7-.095 0-3.968 2.615-7 4z" fill="#E5E5E5"/></g></svg>