<svg viewBox="0 0 178 138" width="178" height="138" xmlns="http://www.w3.org/2000/svg" xmlns:sketch="http://www.bohemiancoding.com/sketch/ns"><title>crosshair</title><desc>Created with Sketch.</desc><g sketch:type="MSLayerGroup" fill="none"><g id="Group" sketch:type="MSShapeGroup"><path d="M45.563 63.8l-5.037-1.39c.406 6.223 1.686 12.384 3.67 18.251 1.983 5.864 4.683 11.472 7.94 16.579 3.274 5.135 7.133 9.793 11.421 13.717 4.334 3.967 9.131 7.203 14.236 9.428l-.011-6.807c-4.394-1.904-8.527-4.675-12.269-8.073-3.706-3.367-7.044-7.366-9.881-11.777-2.822-4.391-5.162-9.21-6.883-14.252-1.721-5.044-2.831-10.336-3.186-15.676z" id="Shape" fill="#B80000"/><path d="M45.563 63.8c.354 5.34 1.465 10.632 3.187 15.676 1.721 5.042 4.061 9.861 6.883 14.252 2.837 4.411 6.175 8.41 9.881 11.777 3.741 3.398 7.875 6.169 12.269 8.073-4.394-1.904-8.527-4.675-12.269-8.073-3.706-3.367-7.044-7.366-9.881-11.777-2.822-4.391-5.162-9.21-6.883-14.252-1.722-5.044-2.832-10.336-3.187-15.676z" id="Shape" opacity=".51" fill="#fff"/><path d="M77.793 120.385l.026 15.203 5.414 2.197.031-15.449.014-6.877.082-41.231-5.646-1.558.068 40.908.011 6.807zM77.624 18.333c-5.329-.835-10.305-.371-14.768 1.175-4.385 1.519-8.276 4.082-11.533 7.486-3.204 3.35-5.8 7.521-7.654 12.334-1.83 4.749-2.946 10.139-3.217 16.014.271-5.875 1.387-11.265 3.217-16.014 1.854-4.813 4.45-8.984 7.654-12.334 3.257-3.404 7.148-5.967 11.533-7.486 4.462-1.546 9.439-2.01 14.768-1.175zM45.551 56.687c.327-4.937 1.363-9.452 2.996-13.417 1.653-4.012 3.922-7.473 6.695-10.24 2.812-2.805 6.147-4.899 9.887-6.124 3.796-1.243 8.009-1.589 12.507-.869l-.013-7.704c-5.329-.835-10.305-.371-14.768 1.175-4.385 1.519-8.276 4.082-11.533 7.486-3.204 3.35-5.8 7.521-7.654 12.334-1.83 4.749-2.946 10.139-3.217 16.014l5.1 1.345zM77.636 26.037l.066 39.13 5.673 1.496.078-39.133.015-7.787.035-17.738-5.909-1.131.03 17.459.012 7.704z" id="Shape" fill="#B80000"/><path d="M83.278 115.459c4.502 1.132 8.828 1.205 12.815.328 4.049-.892 7.749-2.764 10.917-5.504 3.216-2.781 5.88-6.45 7.801-10.879 1.944-4.482 3.12-9.727 3.332-15.58-.212 5.854-1.388 11.098-3.332 15.58-1.921 4.429-4.585 8.098-7.801 10.879-3.169 2.74-6.868 4.612-10.917 5.504-3.987.877-8.313.804-12.815-.328z" id="Shape" opacity=".51" fill="#fff"/><path d="M118.144 83.824c-.211 5.854-1.387 11.098-3.332 15.58-1.921 4.429-4.585 8.098-7.801 10.879-3.169 2.74-6.868 4.612-10.917 5.504-3.987.877-8.313.804-12.815-.328l-.014 6.877c5.275 1.468 10.362 1.68 15.065.755 4.789-.94 9.179-3.06 12.951-6.227 3.838-3.222 7.028-7.521 9.332-12.746 2.337-5.301 3.753-11.532 4.004-18.509l-6.473-1.785zM124.388 77.48c-.591-6.538-2.142-13.023-4.482-19.188-2.34-6.163-5.456-11.969-9.168-17.162-3.69-5.162-7.949-9.691-12.595-13.35-4.594-3.619-9.545-6.369-14.674-8.037 5.129 1.668 10.08 4.418 14.674 8.037 4.646 3.659 8.905 8.188 12.595 13.35 3.712 5.193 6.829 11 9.168 17.162 2.34 6.165 3.89 12.65 4.482 19.188zM83.453 27.53c4.286 1.513 8.412 3.89 12.238 6.958 3.862 3.096 7.405 6.884 10.485 11.175 3.096 4.313 5.711 9.118 7.705 14.211 1.994 5.096 3.357 10.457 3.956 15.877l6.552 1.729c-.591-6.538-2.142-13.023-4.482-19.188-2.34-6.163-5.456-11.969-9.168-17.162-3.69-5.162-7.949-9.691-12.595-13.35-4.594-3.619-9.545-6.369-14.674-8.037l-.017 7.787zM177.526 91.496l-53.138-14.016-6.552-1.728-34.461-9.089-5.673-1.496-32.151-8.48-5.1-1.345-40.05-10.564.445 6.684 39.68 10.948 5.037 1.39 32.151 8.87 5.646 1.558 34.784 9.596 6.472 1.785 52.542 14.496.368-8.609z" id="Shape" fill="#B80000"/></g><g fill="#fff" opacity=".3" sketch:type="MSShapeGroup"><path d="M77.714 72.67l-32.15-8.87c.354 5.34 1.465 10.632 3.187 15.676 1.721 5.042 4.061 9.861 6.883 14.252 2.837 4.411 6.175 8.41 9.881 11.777 3.741 3.398 7.875 6.169 12.269 8.073l-.07-40.908zM77.636 26.037c-4.499-.721-8.711-.374-12.507.869-3.739 1.225-7.074 3.319-9.887 6.124-2.773 2.767-5.042 6.228-6.695 10.24-1.633 3.966-2.669 8.481-2.996 13.417l32.151 8.48-.066-39.13zM118.144 83.824l-34.784-9.597-.082 41.231c4.502 1.132 8.828 1.205 12.815.328 4.049-.892 7.749-2.764 10.917-5.504 3.216-2.781 5.88-6.45 7.801-10.879 1.945-4.481 3.121-9.725 3.333-15.579zM83.453 27.53l-.078 39.133 34.461 9.089c-.599-5.42-1.961-10.781-3.956-15.877-1.994-5.094-4.609-9.898-7.705-14.211-3.08-4.292-6.623-8.079-10.485-11.175-3.826-3.069-7.952-5.446-12.237-6.959z"/></g></g></svg>