<svg xmlns="http://www.w3.org/2000/svg" viewBox="0 0 612 792" enable-background="new 0 0 612 792"><g fill="#fff"><path d="M112 256.3c10.2 10.2 26.8 10.2 37.1 0 10.2-10.2 10.2-26.8 0-37.1l-37.1-37.1c-10.2-10.2-26.8-10.2-37.1 0-10.3 10.3-10.3 26.8 0 37.1l37.1 37.1zm185.4-61.4c14.5 0 26.2-11.8 26.2-26.2v-52.4c0-14.5-11.8-26.2-26.2-26.2-14.5 0-26.2 11.7-26.2 26.2v52.4c0 14.4 11.7 26.2 26.2 26.2zm0 34.9c-88.6 0-161.1 66.2-172.5 151.8l2.4-.3c17.1 0 33.7 2.5 49.3 7 8.1-59.8 58.7-106.1 120.7-106.1 67.6 0 122.4 54.8 122.4 122.4 0 35.3-15.2 66.9-39.2 89.2 14.4 10.2 26.5 23.2 35.9 38.1 34.1-31.9 55.7-77 55.7-127.4 0-96.4-78.2-174.7-174.7-174.7zm288.4 148.6h-52.5c-14.5 0-26.2 11.7-26.2 26.2s11.8 26.2 26.2 26.2h52.5c14.5 0 26.2-11.8 26.2-26.2s-11.7-26.2-26.2-26.2zm-65.9-196.3c-10.3-10.2-26.9-10.2-37.1 0l-37.1 37.1c-10.2 10.3-10.2 26.9 0 37.1s26.8 10.2 37.1 0l37.1-37.1c10.2-10.2 10.2-26.8 0-37.1zM167.8 702c-92.6.1-167.7-74.8-167.8-167.3-.1-92.5 74.8-167.7 167.3-167.8 62.9-.1 117.6 34.5 146.4 85.7 7-1.2 14-2.2 21.3-2.2 69.4-.1 125.8 56.1 125.9 125.4.1 69.5-56.1 125.8-125.5 125.9-29.1.1-134.2.2-167.6.3zm167.5-42.1c46.3-.1 83.8-37.6 83.7-83.9-.1-46.3-37.7-83.7-83.9-83.6-16.7 0-32.3 5.1-45.3 13.6-13-55.7-62.7-97.3-122.3-97.2-69.5.1-125.7 56.4-125.6 125.9.1 69.3 56.4 125.5 125.8 125.4 37.9 0 135.9-.2 167.6-.2z"/></g></svg>