<svg xmlns="http://www.w3.org/2000/svg" viewBox="0 0 612 792" enable-background="new 0 0 612 792"><path fill="#fff" d="M500.7 525.7v-60.9c33.2-19.3 55.6-55.1 55.6-96.3 0-61.5-49.8-111.3-111.3-111.3-22.2 0-42.9 6.7-60.3 18-17.1-74-83.1-129.2-162.2-129.2-92.2 0-166.9 74.7-166.9 166.9 0 49.4 21.5 93.6 55.6 124.1v68.4c-66.4-38.5-111.2-110.2-111.2-192.5 0-122.9 99.6-222.5 222.5-222.5 83.5 0 156.2 46 194.2 114.1 9.2-1.5 18.6-2.9 28.3-2.9 92.2 0 166.9 74.8 166.9 166.9.1 72.7-46.4 134.3-111.2 157.2zM194.7 368.5c15.3 0 27.8 12.5 27.8 27.8v222.5c0 15.3-12.5 27.8-27.8 27.8s-27.8-12.5-27.8-27.8v-222.4c0-15.4 12.5-27.9 27.8-27.9zm111.3 55.7c15.3 0 27.8 12.4 27.8 27.8v222.6c0 15.3-12.5 27.8-27.8 27.8-15.4 0-27.8-12.5-27.8-27.8v-222.7c0-15.3 12.4-27.7 27.8-27.7zm111.2-55.7c15.4 0 27.8 12.5 27.8 27.8v222.5c0 15.3-12.4 27.8-27.8 27.8-15.3 0-27.8-12.5-27.8-27.8v-222.4c0-15.4 12.5-27.9 27.8-27.9z"/></svg>