<svg xmlns="http://www.w3.org/2000/svg" viewBox="0 0 612 792" enable-background="new 0 0 612 792"><g fill="#fff"><path d="M500.8 525.4v-61c33.2-19.2 55.6-55.1 55.6-96.3 0-61.5-49.8-111.3-111.2-111.3-22.2 0-42.9 6.7-60.3 18-17.1-74-83.1-129.3-162.3-129.3-92.2 0-166.9 74.7-166.9 166.9 0 49.4 21.6 93.6 55.6 124.1v68.4c-66.5-38.3-111.3-110-111.3-192.4 0-122.9 99.7-222.5 222.5-222.5 83.5 0 156.3 46.1 194.3 114.1 9.2-1.6 18.6-2.9 28.3-2.9 92.2 0 166.9 74.7 166.9 166.9 0 72.7-46.5 134.3-111.2 157.3zM194.8 637.1c-15.4 0-13.9-12.5-13.9-27.8v-111.3c0-15.4-1.5-27.8 13.9-27.8 15.3 0 13.9 12.5 13.9 27.8v111.3c-.1 15.3 1.4 27.8-13.9 27.8zm111.2 64.9c-15.3 0-13.9-12.4-13.9-27.8v-120.6c0-15.3-1.5-27.8 13.9-27.8s13.9 12.5 13.9 27.8v120.6c0 15.4 1.5 27.8-13.9 27.8zm111.3-64.9c-15.3 0-13.9-12.5-13.9-27.8v-111.3c0-15.4-1.5-27.8 13.9-27.8s13.9 12.5 13.9 27.8v111.3c0 15.3 1.4 27.8-13.9 27.8z"/></g></svg>