<svg xmlns="http://www.w3.org/2000/svg" viewBox="0 0 612 792" enable-background="new 0 0 612 792"><g fill="#fff"><path d="M500.7 525.7v-60.9c33.2-19.3 55.6-55.1 55.6-96.3 0-61.4-49.8-111.2-111.3-111.2-22.2 0-42.9 6.6-60.3 17.9-17.1-74-83.1-129.2-162.2-129.2-92.2 0-166.9 74.7-166.9 166.9 0 49.4 21.5 93.6 55.6 124.2v68.4c-66.4-38.6-111.2-110.3-111.2-192.6 0-122.9 99.6-222.5 222.5-222.5 83.5 0 156.2 46.1 194.2 114.2 9.2-1.6 18.6-2.9 28.3-2.9 92.2 0 166.9 74.7 166.9 166.9.1 72.6-46.5 134.2-111.2 157.1zM194.7 479.8c15.3 0 27.8 12.5 27.8 27.8s-12.5 27.8-27.8 27.8-27.8-12.5-27.8-27.8 12.5-27.8 27.8-27.8zm0 111.3c15.3 0 27.8 12.4 27.8 27.8 0 15.3-12.5 27.8-27.8 27.8s-27.8-12.4-27.8-27.8 12.5-27.8 27.8-27.8zm111.3-55.6c15.3 0 27.8 12.4 27.8 27.8 0 15.3-12.5 27.8-27.8 27.8-15.4 0-27.8-12.5-27.8-27.8 0-15.4 12.4-27.8 27.8-27.8zm0 111.2c15.3 0 27.8 12.5 27.8 27.8 0 15.4-12.5 27.8-27.8 27.8-15.4 0-27.8-12.4-27.8-27.8 0-15.3 12.4-27.8 27.8-27.8zm111.2-166.9c15.4 0 27.8 12.5 27.8 27.8s-12.4 27.8-27.8 27.8c-15.3 0-27.8-12.5-27.8-27.8s12.5-27.8 27.8-27.8zm0 111.3c15.4 0 27.8 12.4 27.8 27.8 0 15.3-12.4 27.8-27.8 27.8-15.3 0-27.8-12.4-27.8-27.8s12.5-27.8 27.8-27.8zm-111.2-185.4c15.3 0 27.8 12.4 27.8 27.8 0 15.3-12.5 27.8-27.8 27.8-15.4 0-27.8-12.5-27.8-27.8 0-15.4 12.4-27.8 27.8-27.8z"/></g></svg>