<svg xmlns="http://www.w3.org/2000/svg" viewBox="0 0 612 792" enable-background="new 0 0 612 792"><path fill="#fff" d="M156.4 523.8c11.3 0 20.4 13.3 20.4 29.7v59.4c0 16.4-9.2 29.7-20.4 29.7s-20.4-13.3-20.4-29.7v-59.4c0-16.4 9.1-29.7 20.4-29.7zm81.6 59.4c11.3 0 20.4 13.3 20.4 29.7v59.4c0 16.3-9.1 29.7-20.4 29.7-11.3 0-20.4-13.3-20.4-29.7v-59.4c0-16.4 9.1-29.7 20.4-29.7zm81.6-59.4c11.3 0 20.4 13.3 20.4 29.7v59.4c0 16.4-9.1 29.7-20.4 29.7-11.3 0-20.4-13.3-20.4-29.7v-59.4c0-16.4 9.2-29.7 20.4-29.7zm69.9 61.3v-47.4c25.8-14.9 43.2-42.8 43.2-74.9 0-47.8-38.7-86.5-86.5-86.5-17.3 0-33.4 5.2-46.9 14-13.3-57.5-64.6-100.5-126.2-100.5-71.7 0-129.8 58.1-129.8 129.8 0 38.4 16.8 72.8 43.3 96.6v53.2c-51.7-30.1-86.6-85.9-86.6-149.9 0-95.6 77.5-173.1 173.1-173.1 65 0 121.5 35.8 151.1 88.8 7.2-1.2 14.5-2.2 22-2.2 71.7 0 129.8 58.1 129.8 129.8 0 56.5-36.2 104.4-86.5 122.3zm155.2-472.7l-73.3 73.3-39.2 39.2-11.2 11.2c-18.5 18.6-48.6 18.6-67.2 0-17.8-17.8-18.3-46.1-2-64.7.6-.9 1.2-1.7 2-2.5 6.2-6.2 16.2-6.2 22.4 0 6.2 6.2 6.2 16.2 0 22.4-6.2 6.2-6.2 16.2 0 22.4 6.2 6.2 16.2 6.2 22.4 0l11.2-11.2 39.2-39.2 73.3-73.3 22.4 22.4zm67.3 133.2l-43.6 43.6-22.4 22.4-11.2 11.2c-6.2 6.2-6.2 16.2 0 22.4 6.2 6.2 16.2 6.2 22.4 0 6.2-6.2 16.2-6.2 22.4 0s6.2 16.3 0 22.4c-.8.7-1.6 1.5-2.5 2-18.7 16.3-46.9 15.8-64.7-2-18.6-18.6-18.6-48.7 0-67.2l11.2-11.2 22.4-22.4 43.6-43.6 22.4 22.4zm-32.9-66.6l-43.6 43.6-22.4 22.4-38.1 38-22.4-22.4 38-38 49.2-49.2 16.7-16.8 22.6 22.4z"/></svg>