<svg width="17" height="21" viewBox="0 0 17 21" xmlns="http://www.w3.org/2000/svg"><g fill="none"><path d="M11.449 20.692c.322.452.849.445 1.166 0l3.294-4.62c.322-.452.128-.818-.423-.818h-6.908c-.556 0-.74.373-.423.818l3.294 4.62zm-1.647-5.437h4.46v-5.25c0-.555-.444-1.005-1.001-1.005h-2.458c-.553 0-1.001.45-1.001 1.005v5.25z" id="Shape" fill="#6F4E39"/><path d="M3.927.855c.283-.473.743-.472 1.025 0l3.368 5.63c.283.473.065.857-.495.857h-6.771c-.557 0-.778-.384-.495-.857l3.368-5.63zm-1.458 6.486h3.94v6.172c0 .551-.452.997-.994.997h-1.952c-.549 0-.994-.448-.994-.997v-6.172z" fill="#51CC66"/></g></svg>