<?xml version="1.0" encoding="utf-8"?>
<!-- Generator: Adobe Illustrator 14.0.0, SVG Export Plug-In . SVG Version: 6.00 Build 43363)  -->
<!DOCTYPE svg PUBLIC "-//W3C//DTD SVG 1.1//EN" "http://www.w3.org/Graphics/SVG/1.1/DTD/svg11.dtd">
<svg version="1.1" id="ml1-SoccerPitch_SVG" xmlns="http://www.w3.org/2000/svg" xmlns:xlink="http://www.w3.org/1999/xlink"
	 x="0px" y="0px" width="320px" height="125px" viewBox="0 0 320 125" enable-background="new 0 0 320 125" xml:space="preserve">
<linearGradient id="SVGID_1_" gradientUnits="userSpaceOnUse" x1="2.4023" y1="-5.7949" x2="3.4023" y2="-5.7949" gradientTransform="matrix(217.1533 0 0 140.8081 -520.6055 878.4634)">
	<stop  offset="0" style="stop-color:#185435;stop-opacity:0.54"/>
	<stop  offset="0.9" style="stop-color:#183924;stop-opacity:0.54"/>
</linearGradient>
<path fill="url(#SVGID_1_)" d="M1.536,1.007h0.4c0,0,205.44,0,205.84,0c0-0.419,10,18.03,10,18.03c0.32,0.698,0.32,1.816,0,2.516
	l-10,20.686l10,18.589c0.32,0.699,0.32,1.887,0,2.585l-10,20.756l10,18.448c0.4-0.351,0.4,1.886,0,2.585l-10,18.798H1.136
	c-0.48,0,0-0.278,0-0.699V1.706v-0.35L1.536,1.007L1.536,1.007L1.536,1.007L1.536,1.007L1.536,1.007L1.536,1.007L1.536,1.007"/>
</svg>
