<?xml version="1.0" encoding="utf-8"?>
<!-- Generator: Adobe Illustrator 14.0.0, SVG Export Plug-In . SVG Version: 6.00 Build 43363)  -->
<!DOCTYPE svg PUBLIC "-//W3C//DTD SVG 1.1//EN" "http://www.w3.org/Graphics/SVG/1.1/DTD/svg11.dtd">
<svg version="1.1" id="ml1-SoccerPitch_SVG" xmlns="http://www.w3.org/2000/svg" xmlns:xlink="http://www.w3.org/1999/xlink"
	 x="0px" y="0px" width="320px" height="125px" viewBox="0 0 320 125" enable-background="new 0 0 320 125" xml:space="preserve">
<linearGradient id="SVGID_1_" gradientUnits="userSpaceOnUse" x1="2.1724" y1="4.3472" x2="3.3447" y2="4.3472" gradientTransform="matrix(230.3761 0 0 122.2292 -499.6138 -468.9393)">
	<stop  offset="0.48" style="stop-color:#185435;stop-opacity:0.54"/>
	<stop  offset="1" style="stop-color:#4B291A;stop-opacity:0.54"/>
</linearGradient>
<path fill="url(#SVGID_1_)" d="M1.624,1.007H2.03c0,0,258.083,0,258.492,0c0-0.418,10.174,18.031,10.174,18.031
	c0.326,0.699,0.326,1.817,0,2.515l-10.174,20.686l10.174,18.588c0.326,0.7,0.326,1.887,0,2.584l-10.174,20.756l10.174,18.448
	c0.406-0.35,0.406,1.888,0,2.587L260.521,124H1.217c-0.488,0,0-0.28,0-0.699V1.707v-0.35L1.624,1.007L1.624,1.007L1.624,1.007
	L1.624,1.007L1.624,1.007L1.624,1.007L1.624,1.007"/>
</svg>
